<svg width="24" height="24" viewBox="0 0 24 24" fill="none" xmlns="http://www.w3.org/2000/svg">
<mask id="mask0_78_7706" style="mask-type:alpha" maskUnits="userSpaceOnUse" x="0" y="0" width="24" height="24">
<rect width="24" height="24" fill="#D9D9D9"/>
</mask>
<g mask="url(#mask0_78_7706)">
<path d="M12.3489 9H20.721C20.2501 7.85 19.5306 6.8625 18.5626 6.0375C17.5946 5.2125 16.4826 4.63333 15.2268 4.3L12.3489 9ZM9.94195 11L14.128 4.1C13.9361 4.06667 13.7443 4.04167 13.5524 4.025C13.3606 4.00833 13.1687 4 12.9768 4C11.8257 4 10.753 4.20833 9.75881 4.625C8.76463 5.04167 7.88381 5.6 7.11637 6.3L9.94195 11ZM4.86637 14H10.5699L6.38381 7.1C5.82567 7.78333 5.38963 8.5375 5.07567 9.3625C4.76172 10.1875 4.60474 11.0667 4.60474 12C4.60474 12.35 4.62654 12.6875 4.67015 13.0125C4.71375 13.3375 4.77916 13.6667 4.86637 14ZM10.7268 19.7L13.5524 15H5.23265C5.70358 16.15 6.42306 17.1375 7.39108 17.9625C8.3591 18.7875 9.47102 19.3667 10.7268 19.7ZM12.9768 20C14.128 20 15.2007 19.7917 16.1949 19.375C17.189 18.9583 18.0699 18.4 18.8373 17.7L16.0117 13L11.8257 19.9C12.0175 19.9333 12.205 19.9583 12.3882 19.975C12.5713 19.9917 12.7675 20 12.9768 20ZM19.5699 16.9C20.128 16.2167 20.564 15.4625 20.878 14.6375C21.192 13.8125 21.3489 12.9333 21.3489 12C21.3489 11.65 21.3271 11.3125 21.2835 10.9875C21.2399 10.6625 21.1745 10.3333 21.0873 10H15.3838L19.5699 16.9ZM12.9768 22C11.5466 22 10.1949 21.7375 8.9216 21.2125C7.64835 20.6875 6.53643 19.9708 5.58585 19.0625C4.63527 18.1542 3.88527 17.0917 3.33585 15.875C2.78643 14.6583 2.51172 13.3667 2.51172 12C2.51172 10.6167 2.78643 9.32083 3.33585 8.1125C3.88527 6.90417 4.63527 5.84583 5.58585 4.9375C6.53643 4.02917 7.64835 3.3125 8.9216 2.7875C10.1949 2.2625 11.5466 2 12.9768 2C14.4245 2 15.7806 2.2625 17.0451 2.7875C18.3097 3.3125 19.4172 4.02917 20.3678 4.9375C21.3184 5.84583 22.0684 6.90417 22.6178 8.1125C23.1672 9.32083 23.442 10.6167 23.442 12C23.442 13.3667 23.1672 14.6583 22.6178 15.875C22.0684 17.0917 21.3184 18.1542 20.3678 19.0625C19.4172 19.9708 18.3097 20.6875 17.0451 21.2125C15.7806 21.7375 14.4245 22 12.9768 22Z" fill="#BB3DFF"/>
</g>
</svg>
