<svg width="22" height="22" viewBox="0 0 22 22" fill="none" xmlns="http://www.w3.org/2000/svg">
<path d="M4.49168 17.5084C0.916675 13.9334 0.916675 8.0667 4.49168 4.4917" stroke="#0088C6" stroke-width="1.83333" stroke-linecap="round" stroke-linejoin="round"/>
<path d="M7.14998 14.85C5.04164 12.7417 5.04164 9.25835 7.14998 7.05835" stroke="#0088C6" stroke-width="1.83333" stroke-linecap="round" stroke-linejoin="round"/>
<path d="M11 12.8334C12.0125 12.8334 12.8333 12.0126 12.8333 11.0001C12.8333 9.98756 12.0125 9.16675 11 9.16675C9.98744 9.16675 9.16663 9.98756 9.16663 11.0001C9.16663 12.0126 9.98744 12.8334 11 12.8334Z" stroke="#0088C6" stroke-width="1.83333" stroke-linecap="round" stroke-linejoin="round"/>
<path d="M14.85 7.1499C16.9583 9.25824 16.9583 12.7416 14.85 14.9416" stroke="#0088C6" stroke-width="1.83333" stroke-linecap="round" stroke-linejoin="round"/>
<path d="M17.5083 4.4917C21.0833 8.0667 21.0833 13.8417 17.5083 17.4167" stroke="#0088C6" stroke-width="1.83333" stroke-linecap="round" stroke-linejoin="round"/>
</svg>
