<svg width="22" height="22" viewBox="0 0 22 22" fill="none" xmlns="http://www.w3.org/2000/svg">
<path d="M4.49155 17.5084C0.916553 13.9334 0.916553 8.0667 4.49155 4.4917" stroke="#819098" stroke-width="1.83333" stroke-linecap="round" stroke-linejoin="round"/>
<path d="M7.1501 14.85C5.04176 12.7417 5.04176 9.25835 7.1501 7.05835" stroke="#819098" stroke-width="1.83333" stroke-linecap="round" stroke-linejoin="round"/>
<path d="M11.0001 12.8334C12.0126 12.8334 12.8334 12.0126 12.8334 11.0001C12.8334 9.98756 12.0126 9.16675 11.0001 9.16675C9.98756 9.16675 9.16675 9.98756 9.16675 11.0001C9.16675 12.0126 9.98756 12.8334 11.0001 12.8334Z" stroke="#819098" stroke-width="1.83333" stroke-linecap="round" stroke-linejoin="round"/>
<path d="M14.8501 7.1499C16.9584 9.25824 16.9584 12.7416 14.8501 14.9416" stroke="#819098" stroke-width="1.83333" stroke-linecap="round" stroke-linejoin="round"/>
<path d="M17.5083 4.4917C21.0833 8.0667 21.0833 13.8417 17.5083 17.4167" stroke="#819098" stroke-width="1.83333" stroke-linecap="round" stroke-linejoin="round"/>
</svg>
