<svg width="20" height="20" viewBox="0 0 20 20" fill="none" xmlns="http://www.w3.org/2000/svg">
<mask id="mask0_78_5216" style="mask-type:alpha" maskUnits="userSpaceOnUse" x="0" y="0" width="20" height="20">
<rect width="20" height="20" fill="#D9D9D9"/>
</mask>
<g mask="url(#mask0_78_5216)">
<path d="M6.39582 17.6355C5.46527 17.1702 4.99999 16.5695 4.99999 15.8334C4.99999 15.5001 5.10068 15.1911 5.30207 14.9063C5.50346 14.6216 5.78471 14.3751 6.14582 14.1667L7.45832 15.3959C7.33332 15.4515 7.19791 15.514 7.05207 15.5834C6.90624 15.6529 6.79166 15.7362 6.70832 15.8334C6.88888 16.0556 7.30555 16.2501 7.95832 16.4167C8.6111 16.5834 9.29166 16.6667 9.99999 16.6667C10.7083 16.6667 11.3924 16.5834 12.0521 16.4167C12.7118 16.2501 13.1319 16.0556 13.3125 15.8334C13.2153 15.7223 13.0903 15.632 12.9375 15.5626C12.7847 15.4931 12.6389 15.4306 12.5 15.3751L13.7917 14.1251C14.1805 14.3473 14.4792 14.6008 14.6875 14.8855C14.8958 15.1702 15 15.4862 15 15.8334C15 16.5695 14.5347 17.1702 13.6042 17.6355C12.6736 18.1008 11.4722 18.3334 9.99999 18.3334C8.52777 18.3334 7.32638 18.1008 6.39582 17.6355ZM10.0208 13.7501C11.3958 12.7362 12.4305 11.7188 13.125 10.698C13.8194 9.67717 14.1667 8.65286 14.1667 7.62508C14.1667 6.20841 13.7153 5.13897 12.8125 4.41675C11.9097 3.69453 10.9722 3.33341 9.99999 3.33341C9.02777 3.33341 8.09027 3.69453 7.18749 4.41675C6.28471 5.13897 5.83332 6.20841 5.83332 7.62508C5.83332 8.55564 6.1736 9.52439 6.85416 10.5313C7.53471 11.5383 8.59027 12.6112 10.0208 13.7501ZM9.99999 15.8334C8.04166 14.389 6.57985 12.9862 5.61457 11.6251C4.6493 10.264 4.16666 8.93064 4.16666 7.62508C4.16666 6.63897 4.34374 5.77439 4.69791 5.03133C5.05207 4.28828 5.50693 3.66675 6.06249 3.16675C6.61805 2.66675 7.24305 2.29175 7.93749 2.04175C8.63193 1.79175 9.31943 1.66675 9.99999 1.66675C10.6805 1.66675 11.368 1.79175 12.0625 2.04175C12.7569 2.29175 13.3819 2.66675 13.9375 3.16675C14.493 3.66675 14.9479 4.28828 15.3021 5.03133C15.6562 5.77439 15.8333 6.63897 15.8333 7.62508C15.8333 8.93064 15.3507 10.264 14.3854 11.6251C13.4201 12.9862 11.9583 14.389 9.99999 15.8334ZM9.99999 9.16675C10.4583 9.16675 10.8507 9.00355 11.1771 8.67717C11.5035 8.35078 11.6667 7.95841 11.6667 7.50008C11.6667 7.04175 11.5035 6.64939 11.1771 6.323C10.8507 5.99661 10.4583 5.83341 9.99999 5.83341C9.54166 5.83341 9.1493 5.99661 8.82291 6.323C8.49652 6.64939 8.33332 7.04175 8.33332 7.50008C8.33332 7.95841 8.49652 8.35078 8.82291 8.67717C9.1493 9.00355 9.54166 9.16675 9.99999 9.16675Z" fill="#6F7D90"/>
</g>
</svg>
