<svg width="20" height="20" viewBox="0 0 20 20" fill="none" xmlns="http://www.w3.org/2000/svg">
<path d="M17.8666 9.20836L10.2082 16.8667C9.27005 17.8049 7.99757 18.332 6.67075 18.332C5.34393 18.332 4.07145 17.8049 3.13325 16.8667C2.19505 15.9285 1.66797 14.656 1.66797 13.3292C1.66797 12.0024 2.19505 10.7299 3.13325 9.7917L10.2749 2.65003C10.9004 2.02345 11.7491 1.67101 12.6345 1.67023C13.5198 1.66945 14.3692 2.02039 14.9957 2.64586C15.6223 3.27133 15.9748 4.12009 15.9755 5.00542C15.9763 5.89074 15.6254 6.74012 14.9999 7.36669L7.84158 14.5084C7.52885 14.8211 7.10469 14.9968 6.66242 14.9968C6.22014 14.9968 5.79598 14.8211 5.48325 14.5084C5.17051 14.1956 4.99482 13.7715 4.99482 13.3292C4.99482 12.8869 5.17051 12.4628 5.48325 12.15L12.5582 5.08336" stroke="#171D26" stroke-width="1.33333" stroke-linecap="round" stroke-linejoin="round"/>
</svg>
