<svg width="20" height="20" viewBox="0 0 20 20" fill="none" xmlns="http://www.w3.org/2000/svg">
<mask id="mask0_78_5209" style="mask-type:alpha" maskUnits="userSpaceOnUse" x="0" y="0" width="20" height="20">
<rect width="20" height="20" fill="#D9D9D9"/>
</mask>
<g mask="url(#mask0_78_5209)">
<path d="M1.66666 17.5V2.5H9.99999V5.83333H18.3333V17.5H1.66666ZM3.33332 15.8333H4.99999V14.1667H3.33332V15.8333ZM3.33332 12.5H4.99999V10.8333H3.33332V12.5ZM3.33332 9.16667H4.99999V7.5H3.33332V9.16667ZM3.33332 5.83333H4.99999V4.16667H3.33332V5.83333ZM6.66666 15.8333H8.33332V14.1667H6.66666V15.8333ZM6.66666 12.5H8.33332V10.8333H6.66666V12.5ZM6.66666 9.16667H8.33332V7.5H6.66666V9.16667ZM6.66666 5.83333H8.33332V4.16667H6.66666V5.83333ZM9.99999 15.8333H16.6667V7.5H9.99999V9.16667H11.6667V10.8333H9.99999V12.5H11.6667V14.1667H9.99999V15.8333ZM13.3333 10.8333V9.16667H15V10.8333H13.3333ZM13.3333 14.1667V12.5H15V14.1667H13.3333Z" fill="#6F7D90"/>
</g>
</svg>
