<svg width="31" height="19" viewBox="0 0 31 19" fill="none" xmlns="http://www.w3.org/2000/svg">
<mask id="mask0_78_7718" style="mask-type:alpha" maskUnits="userSpaceOnUse" x="0" y="0" width="31" height="19">
<rect width="31" height="18.0833" fill="#D9D9D9"/>
</mask>
<g mask="url(#mask0_78_7718)">
<path d="M7.74992 28.417L2.58325 23.2503L7.74992 18.0837L9.59054 19.892L7.52388 21.9587H23.476L21.4416 19.892L23.2499 18.0837L28.4166 23.2503L23.2499 28.417L21.4093 26.6087L23.476 24.542H7.52388L9.55825 26.6087L7.74992 28.417ZM14.2083 16.792V1.29199H16.7916V16.792H14.2083ZM9.04159 14.2087V3.87533H11.6249V14.2087H9.04159ZM19.3749 14.2087V3.87533H21.9583V14.2087H19.3749ZM3.87492 10.9795V7.10449H6.45825V10.9795H3.87492ZM24.5416 10.9795V7.10449H27.1249V10.9795H24.5416Z" fill="#008CD2"/>
</g>
</svg>
