<svg width="24" height="24" viewBox="0 0 24 24" fill="none" xmlns="http://www.w3.org/2000/svg">
<mask id="mask0_78_7700" style="mask-type:alpha" maskUnits="userSpaceOnUse" x="0" y="0" width="24" height="24">
<rect width="24" height="24" fill="#D9D9D9"/>
</mask>
<g mask="url(#mask0_78_7700)">
<path d="M16.2875 7.7125C16.0958 7.52083 16 7.28333 16 7C16 6.71667 16.0958 6.47917 16.2875 6.2875C16.4792 6.09583 16.7167 6 17 6C17.2833 6 17.5208 6.09583 17.7125 6.2875C17.9042 6.47917 18 6.71667 18 7C18 7.28333 17.9042 7.52083 17.7125 7.7125C17.5208 7.90417 17.2833 8 17 8C16.7167 8 16.4792 7.90417 16.2875 7.7125ZM9 14L11.7 10.5L13.25 12.5L15.55 9.5L19 14H9ZM4 22C3.45 22 2.97917 21.8042 2.5875 21.4125C2.19583 21.0208 2 20.55 2 20V6H4V20H18V22H4ZM6 9.375V4C6 3.45 6.19583 2.97917 6.5875 2.5875C6.97917 2.19583 7.45 2 8 2H13V4H8V9.375H6ZM8 18C7.45 18 6.97917 17.8042 6.5875 17.4125C6.19583 17.0208 6 16.55 6 16V11.375H8V16H13V18H8ZM15 18V16H20V11.375H22V16C22 16.55 21.8042 17.0208 21.4125 17.4125C21.0208 17.8042 20.55 18 20 18H15ZM20 9.375V4H15V2H20C20.55 2 21.0208 2.19583 21.4125 2.5875C21.8042 2.97917 22 3.45 22 4V9.375H20Z" fill="#D8C200"/>
</g>
</svg>
