<svg width="20" height="20" viewBox="0 0 20 20" fill="none" xmlns="http://www.w3.org/2000/svg">
<path d="M10 1.66626C9.33696 1.66626 8.70107 1.92965 8.23223 2.39849C7.76339 2.86733 7.5 3.50322 7.5 4.16626V9.99959C7.5 10.6626 7.76339 11.2985 8.23223 11.7674C8.70107 12.2362 9.33696 12.4996 10 12.4996C10.663 12.4996 11.2989 12.2362 11.7678 11.7674C12.2366 11.2985 12.5 10.6626 12.5 9.99959V4.16626C12.5 3.50322 12.2366 2.86733 11.7678 2.39849C11.2989 1.92965 10.663 1.66626 10 1.66626Z" stroke="#171D26" stroke-width="1.33333" stroke-linecap="round" stroke-linejoin="round"/>
<path d="M15.8337 8.33374V10.0004C15.8337 11.5475 15.2191 13.0312 14.1251 14.1252C13.0312 15.2192 11.5474 15.8337 10.0003 15.8337C8.45323 15.8337 6.9695 15.2192 5.87554 14.1252C4.78157 13.0312 4.16699 11.5475 4.16699 10.0004V8.33374" stroke="#171D26" stroke-width="1.33333" stroke-linecap="round" stroke-linejoin="round"/>
<path d="M10 15.8337V18.3337" stroke="#171D26" stroke-width="1.33333" stroke-linecap="round" stroke-linejoin="round"/>
</svg>
