<svg width="22" height="22" viewBox="0 0 22 22" fill="none" xmlns="http://www.w3.org/2000/svg">
<mask id="mask0_78_18549" style="mask-type:alpha" maskUnits="userSpaceOnUse" x="0" y="0" width="22" height="22">
<rect width="22" height="22" fill="#D9D9D9"/>
</mask>
<g mask="url(#mask0_78_18549)">
<path d="M16.7167 11.75C16.551 11.75 16.4167 11.6157 16.4167 11.45V10.2167C16.4167 10.051 16.551 9.91667 16.7167 9.91667H19.7833C19.949 9.91667 20.0833 10.051 20.0833 10.2167V11.45C20.0833 11.6157 19.949 11.75 19.7833 11.75H16.7167ZM17.6967 17.9267C17.5973 18.0592 17.4092 18.0861 17.2767 17.9867L14.8233 16.1467C14.6908 16.0473 14.6639 15.8592 14.7633 15.7267L15.5033 14.74C15.6027 14.6075 15.7908 14.5806 15.9233 14.68L18.3767 16.52C18.5092 16.6194 18.5361 16.8075 18.4367 16.94L17.6967 17.9267ZM15.9233 6.98667C15.7908 7.08608 15.6027 7.05921 15.5033 6.92667L14.7633 5.94C14.6639 5.80745 14.6908 5.61941 14.8233 5.52L17.2767 3.68C17.4092 3.58059 17.5973 3.60745 17.6967 3.74L18.4367 4.72667C18.5361 4.85921 18.5092 5.04726 18.3767 5.14667L15.9233 6.98667ZM4.8 17.25C4.63431 17.25 4.5 17.1157 4.5 16.95V13.8833C4.5 13.7176 4.36569 13.5833 4.2 13.5833H3.58333C3.07917 13.5833 2.64757 13.4038 2.28854 13.0448C1.92951 12.6858 1.75 12.2542 1.75 11.75V9.91667C1.75 9.4125 1.92951 8.9809 2.28854 8.62187C2.64757 8.26285 3.07917 8.08333 3.58333 8.08333H7.1669C7.22128 8.08333 7.27463 8.06856 7.32125 8.04058L11.379 5.60594C11.5789 5.48597 11.8333 5.63 11.8333 5.86319V15.8035C11.8333 16.0367 11.5789 16.1807 11.379 16.0607L7.32125 13.6261C7.27463 13.5981 7.22128 13.5833 7.1669 13.5833H6.63333C6.46765 13.5833 6.33333 13.7176 6.33333 13.8833V16.95C6.33333 17.1157 6.19902 17.25 6.03333 17.25H4.8ZM9.5472 12.8112C9.74719 12.9295 10 12.7854 10 12.553V9.11365C10 8.88127 9.74719 8.73712 9.5472 8.85548L7.82484 9.87484C7.77858 9.90222 7.7258 9.91667 7.67204 9.91667H3.88333C3.71765 9.91667 3.58333 10.051 3.58333 10.2167V11.45C3.58333 11.6157 3.71765 11.75 3.88333 11.75H7.67204C7.7258 11.75 7.77858 11.7644 7.82484 11.7918L9.5472 12.8112ZM13.2103 13.421C13.0478 13.6225 12.75 13.495 12.75 13.2361V8.43055C12.75 8.1717 13.0478 8.04412 13.2103 8.24565C13.4177 8.50295 13.5965 8.78877 13.7469 9.10313C13.999 9.63021 14.125 10.2069 14.125 10.8333C14.125 11.4597 13.999 12.0365 13.7469 12.5635C13.5965 12.8779 13.4177 13.1637 13.2103 13.421Z" fill="#0088C6"/>
</g>
</svg>
