<svg width="20" height="20" viewBox="0 0 20 20" fill="none" xmlns="http://www.w3.org/2000/svg">
<mask id="mask0_78_13798" style="mask-type:alpha" maskUnits="userSpaceOnUse" x="0" y="0" width="20" height="20">
<rect width="20" height="20" fill="#D9D9D9"/>
</mask>
<g mask="url(#mask0_78_13798)">
<path d="M3.33329 16.6666C2.87496 16.6666 2.4826 16.5034 2.15621 16.177C1.82982 15.8506 1.66663 15.4583 1.66663 14.9999V4.99992C1.66663 4.54159 1.82982 4.14922 2.15621 3.82284C2.4826 3.49645 2.87496 3.33325 3.33329 3.33325H13.3333C13.7916 3.33325 14.184 3.49645 14.5104 3.82284C14.8368 4.14922 15 4.54159 15 4.99992V8.74992L18.3333 5.41659V14.5833L15 11.2499V14.9999C15 15.4583 14.8368 15.8506 14.5104 16.177C14.184 16.5034 13.7916 16.6666 13.3333 16.6666H3.33329ZM3.33329 14.9999H13.3333V4.99992H3.33329V14.9999Z" fill="#687282"/>
</g>
</svg>
