<svg width="20" height="20" viewBox="0 0 20 20" fill="none" xmlns="http://www.w3.org/2000/svg">
<mask id="mask0_78_14444" style="mask-type:alpha" maskUnits="userSpaceOnUse" x="0" y="0" width="20" height="20">
<rect width="20" height="20" fill="#D9D9D9"/>
</mask>
<g mask="url(#mask0_78_14444)">
<path d="M2.5677 17.5001C1.79737 17.5001 1.31631 16.6657 1.70227 15.999L9.13449 3.16157C9.51966 2.49629 10.4802 2.49629 10.8653 3.16158L18.2976 15.999C18.6835 16.6657 18.2025 17.5001 17.4321 17.5001H2.5677ZM4.58069 14.3312C4.19352 14.9979 4.6745 15.8334 5.44544 15.8334H14.5544C15.3253 15.8334 15.8063 14.9979 15.4191 14.3312L10.8647 6.48904C10.4792 5.82533 9.52064 5.82533 9.13518 6.48904L4.58069 14.3312ZM10.5937 14.7605C10.7534 14.6008 10.8333 14.4029 10.8333 14.1667C10.8333 13.9306 10.7534 13.7327 10.5937 13.573C10.4339 13.4133 10.236 13.3334 9.99992 13.3334C9.76381 13.3334 9.56589 13.4133 9.40617 13.573C9.24645 13.7327 9.16659 13.9306 9.16659 14.1667C9.16659 14.4029 9.24645 14.6008 9.40617 14.7605C9.56589 14.9202 9.76381 15.0001 9.99992 15.0001C10.236 15.0001 10.4339 14.9202 10.5937 14.7605ZM9.16659 11.6667C9.16659 12.127 9.53968 12.5001 9.99992 12.5001C10.4602 12.5001 10.8333 12.127 10.8333 11.6667V9.16675C10.8333 8.70651 10.4602 8.33341 9.99992 8.33341C9.53968 8.33341 9.16659 8.70651 9.16659 9.16675V11.6667Z" fill="#D12201"/>
</g>
</svg>
